<svg xmlns="http://www.w3.org/2000/svg" width="34" height="30" viewBox="0 0 34 30"><defs><style>.a{fill:#656565;}</style></defs><g transform="translate(0 -6.952)"><g transform="translate(0 6.952)"><ellipse class="a" cx="3.548" cy="3.644" rx="3.548" ry="3.644" transform="translate(13.451 12.85)"/><path class="a" d="M39.333,64.556H36.323a4.611,4.611,0,0,0-4.543,4.666V73l.009.059.253.081a20.178,20.178,0,0,0,6.177,1.024,12.416,12.416,0,0,0,5.393-1.04L43.85,73h.024V69.222A4.608,4.608,0,0,0,39.333,64.556Z" transform="translate(-20.829 -44.168)"/><ellipse class="a" cx="5.724" cy="5.879" rx="5.724" ry="5.879" transform="translate(4.032 0)"/><path class="a" d="M59.464,18.71a5.8,5.8,0,0,0,5.723-5.88,5.726,5.726,0,1,0-11.447,0A5.8,5.8,0,0,0,59.464,18.71Z" transform="translate(-35.222 -6.952)"/><path class="a" d="M14.217,48.96a4.441,4.441,0,0,1,.665-7.121,7.107,7.107,0,0,0-2.7-.535H7.328A7.438,7.438,0,0,0,0,48.831v6.1l.015.1.409.131a32.611,32.611,0,0,0,9.806,1.648V54.2A5.386,5.386,0,0,1,14.217,48.96Z" transform="translate(0 -29.146)"/><path class="a" d="M63.033,41.3H58.177a7.105,7.105,0,0,0-2.7.535,4.44,4.44,0,0,1,.666,7.121,5.193,5.193,0,0,1,2.442,1.419A5.447,5.447,0,0,1,60.133,54.2v2.607a32.617,32.617,0,0,0,9.806-1.648l.409-.131.015-.1v-6.1A7.441,7.441,0,0,0,63.033,41.3Z" transform="translate(-36.363 -29.145)"/></g></g></svg>