<svg xmlns="http://www.w3.org/2000/svg" width="20" height="23" viewBox="0 0 20 23"><defs><style>.a{fill:#666;}</style></defs><g transform="translate(4)"><path class="a" d="M127,0a6.065,6.065,0,1,0,6,6.064A6.039,6.039,0,0,0,127,0Z" transform="translate(-121)"/></g><g transform="translate(0 13.477)"><path class="a" d="M48.465,302.614A8.509,8.509,0,0,0,42.333,300H39.667a8.509,8.509,0,0,0-6.132,2.614A8.887,8.887,0,0,0,31,308.85a.67.67,0,0,0,.667.674H50.333A.67.67,0,0,0,51,308.85,8.887,8.887,0,0,0,48.465,302.614Z" transform="translate(-31 -300)"/></g></svg>