<svg id="Group_8837" data-name="Group 8837" xmlns="http://www.w3.org/2000/svg" width="109.783" height="70.741" viewBox="0 0 109.783 70.741">
  <path id="Path_9706" data-name="Path 9706" d="M234.176,125.23H167.462a10.849,10.849,0,0,0-10.836,10.836v32.758h88.361V136.066a10.828,10.828,0,0,0-10.811-10.836Zm-72.54,38.6V136.067a5.843,5.843,0,0,1,5.837-5.837h66.7a5.843,5.843,0,0,1,5.837,5.837v27.758Z" transform="translate(-145.928 -125.23)"/>
  <path id="Path_9707" data-name="Path 9707" d="M211.34,181.74a2.912,2.912,0,1,1-2.912-2.912A2.915,2.915,0,0,1,211.34,181.74Z" transform="translate(-183.645 -166.579)"/>
  <path id="Path_9708" data-name="Path 9708" d="M299.17,181.74a2.912,2.912,0,1,1-2.912-2.912A2.915,2.915,0,0,1,299.17,181.74Z" transform="translate(-251.403 -166.579)"/>
  <path id="Path_9709" data-name="Path 9709" d="M386.982,181.74a2.906,2.906,0,1,1-2.9-2.912A2.915,2.915,0,0,1,386.982,181.74Z" transform="translate(-319.156 -166.579)"/>
  <path id="Path_9710" data-name="Path 9710" d="M474.77,181.74a2.912,2.912,0,1,1-2.912-2.912A2.915,2.915,0,0,1,474.77,181.74Z" transform="translate(-386.872 -166.579)"/>
  <path id="Path_9711" data-name="Path 9711" d="M211.34,240.47a2.912,2.912,0,1,1-2.912-2.912A2.915,2.915,0,0,1,211.34,240.47Z" transform="translate(-183.645 -211.887)"/>
  <path id="Path_9712" data-name="Path 9712" d="M474.77,240.47a2.912,2.912,0,1,1-2.912-2.912A2.915,2.915,0,0,1,474.77,240.47Z" transform="translate(-386.872 -211.887)"/>
  <path id="Path_9713" data-name="Path 9713" d="M216.1,370.938H113.317a3.5,3.5,0,0,1-3.5-3.5V355.528a3.5,3.5,0,0,1,3.5-3.5H216.1a3.5,3.5,0,0,1,3.5,3.5v11.911A3.5,3.5,0,0,1,216.1,370.938Zm-101.285-5h99.772v-8.9H114.817Z" transform="translate(-109.818 -300.197)"/>
  <path id="Path_9714" data-name="Path 9714" d="M224.4,312.4H118.67v-7.349a10.9,10.9,0,0,1,10.886-10.886h83.951a10.9,10.9,0,0,1,10.886,10.886V312.4Zm-100.735-5h95.736v-2.35a5.889,5.889,0,0,0-5.887-5.887H129.558a5.889,5.889,0,0,0-5.887,5.887Z" transform="translate(-116.647 -255.554)"/>
  <path id="Path_9715" data-name="Path 9715" d="M253.4,271.85H227.18V266.1a7.334,7.334,0,0,1,7.324-7.324h11.573A7.334,7.334,0,0,1,253.4,266.1Zm-21.222-5H248.4v-.75a2.328,2.328,0,0,0-2.325-2.325H234.5a2.328,2.328,0,0,0-2.325,2.325Z" transform="translate(-200.359 -228.257)"/>
  <path id="Path_9716" data-name="Path 9716" d="M384.32,271.85H358.1V266.1a7.334,7.334,0,0,1,7.324-7.324H377a7.334,7.334,0,0,1,7.324,7.324Zm-21.222-5h16.222v-.75A2.328,2.328,0,0,0,377,263.776H365.423A2.328,2.328,0,0,0,363.1,266.1Z" transform="translate(-301.358 -228.257)"/>
</svg>
