<svg id="Group_8843" data-name="Group 8843" xmlns="http://www.w3.org/2000/svg" width="110.859" height="74.266" viewBox="0 0 110.859 74.266">
  <path id="Path_9670" data-name="Path 9670" d="M570.66,336.77h5v24.159h-5Z" transform="translate(-464.801 -286.662)"/>
  <g id="Group_8836" data-name="Group 8836" transform="translate(0 0)">
    <path id="Path_9663" data-name="Path 9663" d="M262.358,198.5H198.093a3.35,3.35,0,0,1-3.349-3.349v-3.3a5.6,5.6,0,0,1,5.587-5.587h59.79a5.6,5.6,0,0,1,5.587,5.587v3.3a3.35,3.35,0,0,1-3.349,3.349Zm-62.615-5H260.71v-1.65a.587.587,0,0,0-.587-.587h-59.79a.587.587,0,0,0-.587.587Z" transform="translate(-174.796 -170.55)"/>
    <path id="Path_9664" data-name="Path 9664" d="M146.855,170.122h-39.4V123.953a6.437,6.437,0,1,1,12.873,0V155.21h18.16a8.369,8.369,0,0,1,8.361,8.361Zm-34.395-5h29.394V163.56a3.371,3.371,0,0,0-3.362-3.362H115.321V123.954a1.437,1.437,0,1,0-2.875,0v41.169Z" transform="translate(-107.46 -117.516)"/>
    <path id="Path_9665" data-name="Path 9665" d="M107.46,336.77h5v24.159h-5Z" transform="translate(-107.46 -286.662)"/>
    <path id="Path_9666" data-name="Path 9666" d="M257.96,336.77h5v24.159h-5Z" transform="translate(-223.565 -286.662)"/>
    <path id="Path_9667" data-name="Path 9667" d="M306.63,420.6h19.822v5H306.63Z" transform="translate(-261.113 -351.334)"/>
    <path id="Path_9668" data-name="Path 9668" d="M339.06,228.87h5v46.318h-5Z" transform="translate(-286.131 -203.421)"/>
    <path id="Path_9669" data-name="Path 9669" d="M459.555,170.124h-39.4v-6.561a8.369,8.369,0,0,1,8.361-8.361h18.16V123.956a6.437,6.437,0,0,1,12.873,0Zm-34.395-5h29.395V123.956a1.437,1.437,0,1,0-2.875,0v36.257H428.52a3.371,3.371,0,0,0-3.362,3.362Z" transform="translate(-348.696 -117.518)"/>
    <path id="Path_9671" data-name="Path 9671" d="M420.16,336.77h5v24.159h-5Z" transform="translate(-348.696 -286.662)"/>
  </g>
</svg>
