<svg xmlns="http://www.w3.org/2000/svg" width="110.025" height="90.886" viewBox="0 0 110.025 90.886">
  <g id="Group_8839" data-name="Group 8839" transform="translate(0 0)">
    <path id="Path_9790" data-name="Path 9790" d="M212.5,388.935H116.314a6.892,6.892,0,0,1-6.887-6.887V362.3h5v19.747a1.894,1.894,0,0,0,1.887,1.887h96.2a1.894,1.894,0,0,0,1.887-1.887V362.3h5v19.747a6.91,6.91,0,0,1-6.9,6.887Z" transform="translate(-109.394 -298.049)"/>
    <path id="Path_9791" data-name="Path 9791" d="M219.036,143.908,202.851,85.967a6.6,6.6,0,0,0-6.349-4.812H184.591a5.06,5.06,0,0,0-2.65.737,5.178,5.178,0,0,0-2.65-.737H166.931a5.06,5.06,0,0,0-2.65.737,5.144,5.144,0,0,0-2.65-.737H149.271a5.06,5.06,0,0,0-2.65.737,5.144,5.144,0,0,0-2.65-.737H132.061a6.6,6.6,0,0,0-6.349,4.812l-16.16,57.941a7.454,7.454,0,0,0-.25,2.562,7.2,7.2,0,0,0,5,6.237,7,7,0,0,0,2.175.337h16.76a1.558,1.558,0,0,1,1.55,1.55h5a1.558,1.558,0,0,1,1.55-1.55h18.91a1.558,1.558,0,0,1,1.55,1.55h5a1.549,1.549,0,0,1,1.55-1.55h18.91a1.558,1.558,0,0,1,1.55,1.55h5a1.558,1.558,0,0,1,1.55-1.55h16.76a7,7,0,0,0,2.175-.337,7.2,7.2,0,0,0,5-6.237,7.483,7.483,0,0,0-.25-2.562Zm-4.762,2.262a2.209,2.209,0,0,1-2.175,1.887h-16.76a6.542,6.542,0,0,0-4.049,1.4,6.542,6.542,0,0,0-4.049-1.4h-18.9a6.542,6.542,0,0,0-4.049,1.4,6.542,6.542,0,0,0-4.049-1.4h-18.9a6.542,6.542,0,0,0-4.049,1.4,6.542,6.542,0,0,0-4.049-1.4h-16.76a2.138,2.138,0,0,1-1.75-.875,2.2,2.2,0,0,1-.425-1.012,2.611,2.611,0,0,1,0-.625,2.362,2.362,0,0,1,.062-.287l16.173-57.941a1.594,1.594,0,0,1,1.537-1.162H144a.152.152,0,0,1,.15.15h5a.144.144,0,0,1,.15-.15h12.361a.152.152,0,0,1,.15.15h5a.144.144,0,0,1,.15-.15h12.361a.144.144,0,0,1,.15.15h5a.144.144,0,0,1,.15-.15h11.911a1.6,1.6,0,0,1,1.537,1.162l16.185,57.941a2.373,2.373,0,0,1,.062.287,3.5,3.5,0,0,1-.038.625Z" transform="translate(-109.281 -81.155)"/>
    <path id="Path_9792" data-name="Path 9792" d="M237.354,300.732a3.012,3.012,0,1,1-3.012-3.012A3.014,3.014,0,0,1,237.354,300.732Z" transform="translate(-203.438 -248.227)"/>
    <path id="Path_9793" data-name="Path 9793" d="M342.844,300.732a3.012,3.012,0,1,1-3.012-3.012A3.014,3.014,0,0,1,342.844,300.732Z" transform="translate(-284.819 -248.227)"/>
    <path id="Path_9794" data-name="Path 9794" d="M448.994,300.732a3.012,3.012,0,1,1-3.012-3.012A3.014,3.014,0,0,1,448.994,300.732Z" transform="translate(-366.71 -248.227)"/>
    <path id="Path_9795" data-name="Path 9795" d="M248.014,222.532A3.012,3.012,0,1,1,245,219.52,3.014,3.014,0,0,1,248.014,222.532Z" transform="translate(-211.662 -187.898)"/>
    <path id="Path_9796" data-name="Path 9796" d="M342.844,222.532a3.012,3.012,0,1,1-3.012-3.012A3.014,3.014,0,0,1,342.844,222.532Z" transform="translate(-284.819 -187.899)"/>
    <path id="Path_9797" data-name="Path 9797" d="M438.274,222.532a3.012,3.012,0,1,1-3.012-3.012A3.014,3.014,0,0,1,438.274,222.532Z" transform="translate(-358.44 -187.898)"/>
    <path id="Path_9798" data-name="Path 9798" d="M258.134,147.662a3.012,3.012,0,1,1-3.012-3.012A3.014,3.014,0,0,1,258.134,147.662Z" transform="translate(-219.469 -130.139)"/>
    <path id="Path_9799" data-name="Path 9799" d="M342.844,147.662a3.012,3.012,0,1,1-3.012-3.012A3.014,3.014,0,0,1,342.844,147.662Z" transform="translate(-284.819 -130.139)"/>
    <path id="Path_9800" data-name="Path 9800" d="M428.154,147.662a3.012,3.012,0,1,1-3.012-3.012A3.014,3.014,0,0,1,428.154,147.662Z" transform="translate(-350.633 -130.139)"/>
  </g>
</svg>
