<svg xmlns="http://www.w3.org/2000/svg" width="109.734" height="105.159" viewBox="0 0 109.734 105.159">
  <g id="Group_8838" data-name="Group 8838" transform="translate(0 0)">
    <path id="Path_9751" data-name="Path 9751" d="M216.731,155.088H112.848a2.928,2.928,0,0,1-2.925-2.925V56.953a7.03,7.03,0,0,1,7.024-7.024h95.686a7.03,7.03,0,0,1,7.024,7.024v95.2a2.931,2.931,0,0,1-2.925,2.937Zm-101.809-5h99.736V56.953a2.032,2.032,0,0,0-2.025-2.025H116.948a2.032,2.032,0,0,0-2.025,2.025Z" transform="translate(-109.923 -49.929)"/>
    <path id="Path_9752" data-name="Path 9752" d="M238.756,186.435H153.418a2.928,2.928,0,0,1-2.925-2.925V94.324a3.766,3.766,0,0,1,3.762-3.762h83.663a3.766,3.766,0,0,1,3.762,3.762v89.187a2.928,2.928,0,0,1-2.925,2.925Zm-83.263-5h81.2V95.549h-81.2Z" transform="translate(-141.221 -81.276)"/>
    <path id="Path_9753" data-name="Path 9753" d="M161.44,289.35h86.2v5h-86.2Z" transform="translate(-149.666 -234.633)"/>
    <path id="Path_9754" data-name="Path 9754" d="M310.24,346.17h18.185v5H310.24Z" transform="translate(-264.46 -278.468)"/>
    <path id="Path_9755" data-name="Path 9755" d="M310.24,147.33h18.185v5H310.24Z" transform="translate(-264.46 -125.07)"/>
  </g>
</svg>
