<svg id="Group_8842" data-name="Group 8842" xmlns="http://www.w3.org/2000/svg" width="109.947" height="64.23" viewBox="0 0 109.947 64.23">
  <path id="Path_9922" data-name="Path 9922" d="M344.062,180.74v.15a1.265,1.265,0,0,1,.212-.038c.037-.012.087-.012.125-.025a.976.976,0,0,1,.175-.025c.063-.013.125-.013.188-.025s.112-.013.162-.013.112-.012.175-.012h-1.037Zm0,0v.15a1.265,1.265,0,0,1,.212-.038c.037-.012.087-.012.125-.025a.976.976,0,0,1,.175-.025c.063-.013.125-.013.188-.025s.112-.013.162-.013.112-.012.175-.012h-1.037Zm0,0v.15a1.265,1.265,0,0,1,.212-.038c.037-.012.087-.012.125-.025a.976.976,0,0,1,.175-.025c.063-.013.125-.013.188-.025s.112-.013.162-.013.112-.012.175-.012h-1.037Zm0,0v.15a1.265,1.265,0,0,1,.212-.038c.037-.012.087-.012.125-.025a.976.976,0,0,1,.175-.025c.063-.013.125-.013.188-.025s.1-.013.162-.013.112-.012.175-.012h-1.037Zm34.445-41.23H347.748a8.7,8.7,0,0,0-8.686,8.686V185.74h40.844V169.8a.144.144,0,0,1,.075-.137c.025-.013.037-.025.063-.025h7.136V148.183a8.678,8.678,0,0,0-8.674-8.674Zm1.262,25.135c-.075,0-.15.013-.225.013-.175.012-.35.05-.512.075-.037.012-.087.012-.125.025-.088.025-.162.037-.25.062-.037.013-.087.025-.125.037a1.819,1.819,0,0,0-.237.087l-.125.05a2.961,2.961,0,0,0-.45.212c-.112.063-.225.125-.325.188a2.044,2.044,0,0,0-.212.137c-.075.05-.137.1-.2.15s-.125.1-.2.15-.125.112-.187.162a1.151,1.151,0,0,0-.175.175,1.915,1.915,0,0,0-.15.162l-.225.262c-.025.037-.062.075-.087.112s-.075.1-.1.137a1.037,1.037,0,0,0-.1.15c-.087.137-.175.287-.263.437a.62.62,0,0,0-.037.087c-.013.025-.025.063-.037.087s-.025.062-.037.087l-.113.262c-.012.038-.037.087-.05.125a1.1,1.1,0,0,0-.063.188l-.037.112c-.013.05-.037.112-.05.175-.037.15-.075.312-.1.462a.967.967,0,0,0-.025.187c0,.038-.013.063-.013.1v.05c0,.062-.012.137-.012.2v11.186H344.063V148.184a3.686,3.686,0,0,1,3.687-3.687h30.759a3.686,3.686,0,0,1,3.687,3.687v16.448h-2.25c-.062,0-.113.012-.175.012Zm-35.707,16.1v.15a1.257,1.257,0,0,1,.212-.038c.037-.013.087-.013.125-.025a.981.981,0,0,1,.175-.025c.063-.013.125-.013.188-.025s.112-.013.162-.013.112-.012.175-.012h-1.037Zm0,0v.15a1.257,1.257,0,0,1,.212-.038c.037-.013.087-.013.125-.025a.981.981,0,0,1,.175-.025c.063-.013.125-.013.188-.025s.112-.013.162-.013.112-.012.175-.012h-1.037Zm0,0v.15a1.257,1.257,0,0,1,.212-.038c.037-.013.087-.013.125-.025a.981.981,0,0,1,.175-.025c.063-.013.125-.013.188-.025s.112-.013.162-.013.112-.012.175-.012h-1.037Z" transform="translate(-286.594 -139.494)"/>
  <path id="Path_9923" data-name="Path 9923" d="M159.965,165.2a1.184,1.184,0,0,1,.212.125,2.028,2.028,0,0,1,.212.137C160.252,165.38,160.1,165.292,159.965,165.2Zm0,0a1.184,1.184,0,0,1,.212.125,2.028,2.028,0,0,1,.212.137C160.252,165.38,160.1,165.292,159.965,165.2Zm36.045-23.16a8.656,8.656,0,0,0-6.186-2.6H159.078a8.7,8.7,0,0,0-8.686,8.686v21.447h7.149a.046.046,0,0,1,.038.012c.012.013.038.013.05.038l.013.013c0,.012.013.012.013.025a.039.039,0,0,1,.012.025.044.044,0,0,0,.013.025v15.973h40.83V148.13a8.705,8.705,0,0,0-2.5-6.087Zm-33.346,38.643V169.465c0-.062-.013-.137-.013-.2v-.05a.276.276,0,0,0-.012-.1c-.013-.062-.013-.125-.025-.187-.025-.162-.062-.312-.1-.462-.013-.062-.038-.113-.05-.175s-.025-.1-.038-.137a4.858,4.858,0,0,0-.262-.637,1.04,1.04,0,0,0-.087-.163,3.124,3.124,0,0,0-.262-.437c-.038-.05-.062-.1-.1-.15s-.1-.138-.15-.2l-.15-.187c-.038-.037-.062-.075-.1-.112a1.93,1.93,0,0,1-.15-.162,2.312,2.312,0,0,1-.175-.175c-.063-.05-.125-.112-.187-.162l-.187-.15c-.075-.05-.137-.1-.212-.15-.137-.087-.275-.175-.425-.262a4.2,4.2,0,0,0-.537-.25c-.025-.012-.062-.025-.087-.037a1.518,1.518,0,0,0-.175-.062c-.075-.025-.162-.05-.25-.075a1.826,1.826,0,0,0-.25-.062l-.375-.075c-.025,0-.05-.013-.087-.013l-.312-.037a2.508,2.508,0,0,0-.312-.013h-2.2V148.13a3.686,3.686,0,0,1,3.687-3.687h30.759a3.686,3.686,0,0,1,3.687,3.687v32.557Zm-2.7-15.485a1.187,1.187,0,0,1,.212.125,2.03,2.03,0,0,1,.212.137C160.252,165.378,160.1,165.29,159.965,165.2Zm0,0a1.187,1.187,0,0,1,.212.125,2.03,2.03,0,0,1,.212.137C160.252,165.378,160.1,165.29,159.965,165.2Z" transform="translate(-141.042 -139.445)"/>
  <path id="Path_9924" data-name="Path 9924" d="M379.9,342.9H339.06V326.319a6.4,6.4,0,0,1,6.4-6.4H379.9Zm-35.844-5h30.846V324.919H345.448a1.4,1.4,0,0,0-1.4,1.4V337.9Z" transform="translate(-286.592 -278.675)"/>
  <path id="Path_9925" data-name="Path 9925" d="M223.064,342.9H182.22V319.92h34.445a6.4,6.4,0,0,1,6.4,6.4Zm-35.844-5h30.846v-11.6a1.4,1.4,0,0,0-1.4-1.4H187.222Z" transform="translate(-165.595 -278.675)"/>
  <path id="Path_9926" data-name="Path 9926" d="M513.915,288.523h-18.01V254.6a5.185,5.185,0,0,1,5.174-5.174h11.286a5.185,5.185,0,0,1,5.174,5.174v30.309a3.632,3.632,0,0,1-3.624,3.612Zm-13.011-5h11.623V254.6a.171.171,0,0,0-.175-.175H501.067a.171.171,0,0,0-.175.175v28.921Z" transform="translate(-407.592 -224.294)"/>
  <path id="Path_9927" data-name="Path 9927" d="M131.1,288.519h-18.01a3.622,3.622,0,0,1-3.612-3.612V254.6a5.185,5.185,0,0,1,5.174-5.174h11.273A5.185,5.185,0,0,1,131.1,254.6Zm-16.622-5H126.1V254.6a.171.171,0,0,0-.175-.175H114.654a.171.171,0,0,0-.175.175Z" transform="translate(-109.48 -224.29)"/>
  <path id="Path_9928" data-name="Path 9928" d="M224.671,200.82a2.85,2.85,0,1,1-2.85-2.85A2.856,2.856,0,0,1,224.671,200.82Z" transform="translate(-193.948 -184.595)"/>
  <path id="Path_9929" data-name="Path 9929" d="M287.061,200.82a2.85,2.85,0,1,1-2.85-2.85A2.848,2.848,0,0,1,287.061,200.82Z" transform="translate(-242.081 -184.595)"/>
  <path id="Path_9930" data-name="Path 9930" d="M461.81,200.82a2.856,2.856,0,1,1-2.85-2.85A2.856,2.856,0,0,1,461.81,200.82Z" transform="translate(-376.883 -184.595)"/>
  <path id="Path_9931" data-name="Path 9931" d="M224.671,263.711a2.85,2.85,0,1,1-2.85-2.85A2.867,2.867,0,0,1,224.671,263.711Z" transform="translate(-193.948 -233.113)"/>
  <path id="Path_9932" data-name="Path 9932" d="M287.061,263.711a2.85,2.85,0,1,1-2.85-2.85A2.859,2.859,0,0,1,287.061,263.711Z" transform="translate(-242.081 -233.113)"/>
  <path id="Path_9933" data-name="Path 9933" d="M461.81,263.711a2.856,2.856,0,1,1-2.85-2.85A2.867,2.867,0,0,1,461.81,263.711Z" transform="translate(-376.883 -233.113)"/>
  <path id="Path_9934" data-name="Path 9934" d="M399.451,200.82a2.85,2.85,0,1,1-2.85-2.85A2.848,2.848,0,0,1,399.451,200.82Z" transform="translate(-328.785 -184.595)"/>
  <path id="Path_9935" data-name="Path 9935" d="M399.451,263.711a2.85,2.85,0,1,1-2.85-2.85A2.859,2.859,0,0,1,399.451,263.711Z" transform="translate(-328.785 -233.113)"/>
</svg>
