<svg id="Group_8841" data-name="Group 8841" xmlns="http://www.w3.org/2000/svg" width="90.849" height="109.896" viewBox="0 0 90.849 109.896">
  <path id="Path_9881" data-name="Path 9881" d="M237.029,149.44H156.341a5.078,5.078,0,0,1-5.074-5.074V44.618a5.078,5.078,0,0,1,5.074-5.074h80.7a5.078,5.078,0,0,1,5.074,5.074v99.747a5.1,5.1,0,0,1-5.087,5.074ZM156.341,44.555a.081.081,0,0,0-.075.075v99.747a.081.081,0,0,0,.075.075h80.7a.081.081,0,0,0,.075-.075V44.616a.081.081,0,0,0-.075-.075h-80.7Z" transform="translate(-151.267 -39.544)"/>
  <path id="Path_9882" data-name="Path 9882" d="M339.06,50.531h5v104.9h-5Z" transform="translate(-296.142 -48.02)"/>
  <path id="Path_9883" data-name="Path 9883" d="M162.2,405.56h85.836v5H162.2Z" transform="translate(-159.701 -321.912)"/>
  <path id="Path_9884" data-name="Path 9884" d="M381.06,208.58h5V221.6h-5Z" transform="translate(-328.544 -169.949)"/>
  <path id="Path_9885" data-name="Path 9885" d="M297.06,208.58h5V221.6h-5Z" transform="translate(-263.741 -169.949)"/>
  <path id="Path_9886" data-name="Path 9886" d="M233.57,446.96h10.286v5H233.57Z" transform="translate(-214.761 -353.85)"/>
  <path id="Path_9887" data-name="Path 9887" d="M421.42,446.96h10.286v5H421.42Z" transform="translate(-359.68 -353.85)"/>
</svg>
