<svg xmlns="http://www.w3.org/2000/svg" width="12" height="15" viewBox="0 0 12 15"><defs><style>.a{fill:#999;}</style></defs><g transform="translate(-48)"><path class="a" d="M58.846,1.875H56.308V1.406A1.4,1.4,0,0,0,54.923,0H53.077a1.4,1.4,0,0,0-1.385,1.406v.469H49.154A1.163,1.163,0,0,0,48,3.047v.938a.465.465,0,0,0,.462.469H59.538A.465.465,0,0,0,60,3.984V3.047A1.163,1.163,0,0,0,58.846,1.875Zm-6.231-.469a.466.466,0,0,1,.462-.469h1.846a.466.466,0,0,1,.462.469v.469H52.615Z" transform="translate(0)"/><path class="a" d="M73.508,184a.145.145,0,0,0-.144.153l.381,8.117a1.393,1.393,0,0,0,1.383,1.339h7.009a1.392,1.392,0,0,0,1.383-1.339l.381-8.117a.145.145,0,0,0-.144-.153Zm6.97,1.172a.462.462,0,1,1,.923,0v6.094a.462.462,0,1,1-.923,0Zm-2.308,0a.462.462,0,1,1,.923,0v6.094a.462.462,0,1,1-.923,0Zm-2.308,0a.462.462,0,1,1,.923,0v6.094a.462.462,0,1,1-.923,0Z" transform="translate(-24.633 -178.609)"/></g></svg>