<svg xmlns="http://www.w3.org/2000/svg" width="25.75" height="25.564" viewBox="0 0 25.75 25.564">
  <g id="Group_534" data-name="Group 534" transform="translate(-234.396 -403.645)">
    <text id="_" data-name="$" transform="translate(242.681 422.204)" fill="#040506" font-size="15.779" font-family="HelveticaNeue-Bold, Helvetica Neue" font-weight="700"><tspan x="0" y="0">$</tspan></text>
    <path id="Path_2992" data-name="Path 2992" d="M259.424,419.553a12.491,12.491,0,0,1-23.588,1.779l-.17.839a.51.51,0,1,1-1-.2l.56-2.643a.5.5,0,0,1,.5-.4h0a.5.5,0,0,1,.5.375,11.492,11.492,0,0,0,22.254,0,.489.489,0,1,1,.95.23Zm-23.833-5.621a.513.513,0,0,0,.125,0,.5.5,0,0,0,.5-.375,11.491,11.491,0,0,1,22.254,0,.5.5,0,0,0,1-.045l.415-2.533a.506.506,0,0,0-1-.16l-.095.584a12.491,12.491,0,0,0-23.533,1.9.5.5,0,0,0,.332.624Z" transform="translate(0 0)" fill="#040506" stroke="#040506" stroke-width="0.5"/>
  </g>
</svg>
