<svg xmlns="http://www.w3.org/2000/svg" width="18.045" height="18.806" viewBox="0 0 18.045 18.806"><defs><style>.a{fill:#666;}</style></defs><g transform="translate(0 0)"><g transform="translate(0 0)"><path class="a" d="M27.534,9.645a.551.551,0,0,1,0-.487l.7-1.435a1.633,1.633,0,0,0-.7-2.168L26.12,4.806a.551.551,0,0,1-.286-.394l-.276-1.573A1.633,1.633,0,0,0,23.714,1.5l-1.581.224a.551.551,0,0,1-.463-.151L20.521.462a1.632,1.632,0,0,0-2.28,0L17.094,1.572a.551.551,0,0,1-.463.151L15.049,1.5a1.632,1.632,0,0,0-1.844,1.34l-.276,1.573a.551.551,0,0,1-.286.394l-1.411.749a1.633,1.633,0,0,0-.7,2.168l.7,1.435a.551.551,0,0,1,0,.487l-.7,1.435a1.633,1.633,0,0,0,.7,2.168L12.643,14a.551.551,0,0,1,.286.394l.276,1.573a1.632,1.632,0,0,0,1.609,1.356,1.678,1.678,0,0,0,.235-.017l1.581-.224a.551.551,0,0,1,.463.151l1.148,1.11a1.632,1.632,0,0,0,2.279,0l1.148-1.11a.552.552,0,0,1,.463-.151l1.581.224a1.632,1.632,0,0,0,1.844-1.34l.276-1.573A.551.551,0,0,1,26.12,14l1.411-.749a1.633,1.633,0,0,0,.7-2.168Zm-.511,2.645-1.411.749a1.629,1.629,0,0,0-.846,1.165l-.276,1.573a.552.552,0,0,1-.624.453l-1.581-.224a1.628,1.628,0,0,0-1.369.445l-1.148,1.11a.552.552,0,0,1-.771,0l-1.148-1.11a1.627,1.627,0,0,0-1.136-.461,1.665,1.665,0,0,0-.233.016l-1.581.224a.552.552,0,0,1-.624-.453L14,14.2a1.629,1.629,0,0,0-.846-1.165l-1.411-.749a.552.552,0,0,1-.238-.733l.7-1.435a1.629,1.629,0,0,0,0-1.44l-.7-1.435a.552.552,0,0,1,.238-.733l1.411-.749A1.629,1.629,0,0,0,14,4.6l.276-1.573a.552.552,0,0,1,.624-.453l1.581.224a1.629,1.629,0,0,0,1.369-.445L19,1.241a.552.552,0,0,1,.771,0l1.148,1.11a1.629,1.629,0,0,0,1.369.445l1.581-.224a.552.552,0,0,1,.624.453L24.765,4.6a1.629,1.629,0,0,0,.846,1.165l1.411.749a.552.552,0,0,1,.238.733l-.7,1.435a1.629,1.629,0,0,0,0,1.44l.7,1.435A.552.552,0,0,1,27.022,12.289Z" transform="translate(-10.359 0.002)"/></g></g><g transform="translate(4.901 5.282)"><path class="a" d="M151.876,143.95a.542.542,0,0,0-.767,0l-7.158,7.158a.542.542,0,1,0,.767.767l7.158-7.158A.542.542,0,0,0,151.876,143.95Z" transform="translate(-143.791 -143.791)"/></g><g transform="translate(4.865 4.522)"><g transform="translate(0)"><path class="a" d="M144.791,123.116a1.989,1.989,0,1,0,1.989,1.989A1.991,1.991,0,0,0,144.791,123.116Zm0,2.892a.9.9,0,1,1,.9-.9A.9.9,0,0,1,144.791,126.008Z" transform="translate(-142.802 -123.116)"/></g></g><g transform="translate(9.203 10.307)"><path class="a" d="M262.911,280.61A1.989,1.989,0,1,0,264.9,282.6,1.991,1.991,0,0,0,262.911,280.61Zm0,2.892a.9.9,0,1,1,.9-.9A.9.9,0,0,1,262.911,283.5Z" transform="translate(-260.922 -280.61)"/></g></svg>