<svg xmlns="http://www.w3.org/2000/svg" width="13" height="15" viewBox="0 0 13 15"><defs><style>.a{fill:#666;}</style></defs><g transform="translate(-332 -28)"><g transform="translate(334.6 28)"><path class="a" d="M124.9,0A3.932,3.932,0,0,0,121,3.955a3.9,3.9,0,1,0,7.8,0A3.932,3.932,0,0,0,124.9,0Z" transform="translate(-121)"/></g><g transform="translate(332 36.789)"><path class="a" d="M42.352,301.7a5.522,5.522,0,0,0-3.986-1.7H36.633a5.522,5.522,0,0,0-3.986,1.7A5.806,5.806,0,0,0,31,305.771a.436.436,0,0,0,.433.439H43.567a.436.436,0,0,0,.433-.439A5.806,5.806,0,0,0,42.352,301.7Z" transform="translate(-31 -300)"/></g></g></svg>