<svg xmlns="http://www.w3.org/2000/svg" width="107" height="29" viewBox="0 0 107 29"><defs><style>.a{fill:#0e0507;}.b{fill:#ff3301;}.c{fill:#82827c;font-size:17px;font-family:HelveticaNeue-Bold, Helvetica Neue;font-weight:700;}</style></defs><g transform="translate(-663.999 -56.968)"><g transform="translate(663.999 54.968)"><g transform="translate(0.988 2)"><path class="a" d="M661,44.134h2.556v2.9h2.8v-2.9h2.568v8.274H666.35V49.061h-2.8v3.347H661Z" transform="translate(-660.999 -43.636)"/><path class="a" d="M691.965,54.515a3,3,0,0,1,.924-2.261,4.019,4.019,0,0,1,5.223.155,3.268,3.268,0,0,1-.178,4.338,3.5,3.5,0,0,1-2.538.884,3.556,3.556,0,0,1-2.336-.735,2.942,2.942,0,0,1-1.094-2.381m2.3,0a1.82,1.82,0,0,0,.324,1.185,1.063,1.063,0,0,0,1.631,0,1.871,1.871,0,0,0,.319-1.213,1.772,1.772,0,0,0-.322-1.159,1,1,0,0,0-.8-.381,1.038,1.038,0,0,0-.83.387,1.8,1.8,0,0,0-.327,1.178" transform="translate(-682.781 -48.723)"/><path class="a" d="M718.964,51.5h2.145v.874a2.965,2.965,0,0,1,.935-.778,2.556,2.556,0,0,1,1.139-.233,2.184,2.184,0,0,1,1.137.255,1.883,1.883,0,0,1,.683.756,3.478,3.478,0,0,1,.986-.8,2.545,2.545,0,0,1,1.1-.213,1.961,1.961,0,0,1,1.5.574,2.532,2.532,0,0,1,.542,1.791v3.765h-2.3V54.079a.963.963,0,0,0-.156-.6.694.694,0,0,0-.574-.311.81.81,0,0,0-.653.294,1.455,1.455,0,0,0-.246.942v3.093h-2.3v-3.3a2.091,2.091,0,0,0-.044-.537.748.748,0,0,0-.256-.363.676.676,0,0,0-.425-.138.818.818,0,0,0-.651.3,1.508,1.508,0,0,0-.256.983v3.058h-2.3Z" transform="translate(-701.772 -48.722)"/><path class="a" d="M763.851,55.068h-4.605a1.484,1.484,0,0,0,.3.824,1.087,1.087,0,0,0,.868.389,1.3,1.3,0,0,0,.643-.169,1.488,1.488,0,0,0,.4-.378l2.264.208a3.253,3.253,0,0,1-1.253,1.3,4.593,4.593,0,0,1-2.106.391,4.278,4.278,0,0,1-1.872-.337,2.752,2.752,0,0,1-1.134-1.066,3.224,3.224,0,0,1-.449-1.718,3.027,3.027,0,0,1,.9-2.277,3.435,3.435,0,0,1,2.487-.868,4.431,4.431,0,0,1,2.033.39,2.614,2.614,0,0,1,1.133,1.129,4.123,4.123,0,0,1,.39,1.924Zm-2.336-1.1a1.531,1.531,0,0,0-.361-.955,1.124,1.124,0,0,0-1.639.147,1.592,1.592,0,0,0-.263.808Z" transform="translate(-728.462 -48.723)"/><path class="b" d="M782.178,44.134h7.772v2.043h-2.608v6.231h-2.556V46.177h-2.608Z" transform="translate(-746.238 -43.636)"/><path class="b" d="M808.172,54.515a3,3,0,0,1,.925-2.261,4.016,4.016,0,0,1,5.221.155,3.268,3.268,0,0,1-.177,4.338,3.51,3.51,0,0,1-2.538.884,3.556,3.556,0,0,1-2.336-.735,2.939,2.939,0,0,1-1.1-2.381m2.3,0a1.818,1.818,0,0,0,.323,1.185,1.065,1.065,0,0,0,1.633,0,1.879,1.879,0,0,0,.318-1.213,1.769,1.769,0,0,0-.322-1.159,1.006,1.006,0,0,0-.8-.381,1.033,1.033,0,0,0-.828.387,1.781,1.781,0,0,0-.328,1.178" transform="translate(-764.522 -48.723)"/><path class="b" d="M832.15,51.825h2.22l.962,3.774,1.217-3.774h2.075l1.269,3.783.967-3.783h2.206l-2.208,5.993h-2.045L837.6,54.211l-1.173,3.607h-2.052Z" transform="translate(-781.389 -49.046)"/><path class="b" d="M871.2,51.5h2.139v.975a3.157,3.157,0,0,1,.97-.854,2.551,2.551,0,0,1,1.2-.258,1.966,1.966,0,0,1,1.494.567,2.48,2.48,0,0,1,.538,1.753v3.809h-2.309V54.2a1.2,1.2,0,0,0-.209-.8.746.746,0,0,0-.586-.234.831.831,0,0,0-.677.316,1.824,1.824,0,0,0-.26,1.135v2.878h-2.3Z" transform="translate(-808.859 -48.722)"/><path class="b" d="M891.969,45.252s.98-.473.788-.912-.4-.644-.381-.75-.056-.12-.112-.179-.067-.125-.063-.272,0-.167-.084-.212,0-.2-.054-.276-.313-.195-.112-.195a1.571,1.571,0,0,1,1.074.53c.553.488.586.608.845.506s.629-.492.919-.418c.208.052.246.2.342.227a.935.935,0,0,0-.555.377,2.9,2.9,0,0,1-2.605,1.575" transform="translate(-823.398 -42.456)"/></g><text class="c" transform="translate(0 27)"><tspan x="0" y="0">EXCLUSIVES</tspan></text></g></g></svg>