<svg xmlns="http://www.w3.org/2000/svg" width="50" height="50" viewBox="0 0 50 50">
  <g id="Group_6108" data-name="Group 6108" transform="translate(246 -3488)">
    <g id="facebook" transform="translate(-246 3488)">
      <circle id="Ellipse_412" data-name="Ellipse 412" cx="25" cy="25" r="25" transform="translate(0 0)" fill="#deba7d"/>
    </g>
    <g id="noun_amazon_3050062" transform="translate(-250.282 3490.664)">
      <path id="Path_12606" data-name="Path 12606" d="M14.269,73.4c-.486-.262-.972-.534-1.458-.811-.321-.19-.636-.379-.972-.583-.486-.316-.972-.646-1.458-.972a.321.321,0,0,0-.486.039.35.35,0,0,0,0,.486c.379.428.768.85,1.171,1.263.233.243.486.457.734.69a19.879,19.879,0,0,0,2.565,2.128c.486.35,1,.685,1.511,1,.656.4,1.317.8,2.007,1.147s1.356.622,2.041.913a13.414,13.414,0,0,0,1.273.486,13.441,13.441,0,0,0,2.58.675c.792.078,1.579.238,2.376.316.486.049,1.015,0,1.526,0V80.2c.845-.049,1.7-.068,2.536-.155.7-.073,1.39-.2,2.08-.345s1.409-.316,2.109-.515c.52-.151,1.025-.355,1.531-.549a13.691,13.691,0,0,0,1.3-.53c.568-.282,1.122-.6,1.671-.918a16.627,16.627,0,0,0,1.409-.894,10.729,10.729,0,0,0,1.015-.792c.486-.413.933-.841,1.39-1.273a.486.486,0,0,0,.049-.583.612.612,0,0,0-.578-.16c-.219.078-.423.194-.636.287-.972.418-1.944.826-2.915,1.254a22.838,22.838,0,0,1-2.978,1.011c-.486.141-.972.282-1.458.408-.316.078-.632.141-.972.209-.486.107-.972.238-1.458.311s-1.006.078-1.511.107c-.355,0-.7.053-1.059.058-.821,0-1.647,0-2.468-.024-.564,0-1.127-.083-1.7-.131-.33-.029-.661-.049-.972-.1-.748-.131-1.492-.287-2.235-.428a13.93,13.93,0,0,1-2.459-.7c-.661-.262-1.317-.53-1.968-.807-.515-.219-1.03-.437-1.531-.68C15.416,73.976,14.847,73.679,14.269,73.4Z" transform="translate(0 -46.514)"/>
      <path id="Path_12607" data-name="Path 12607" d="M81.075,69.633A11.046,11.046,0,0,0,81.26,68,1.239,1.239,0,0,0,80.2,66.766a8.713,8.713,0,0,0-1.506-.126,11.816,11.816,0,0,0-2.536.3,9.868,9.868,0,0,0-2.978,1.249c-.087.058-.117.2-.175.311a1.142,1.142,0,0,0,.34.078c.355-.049.7-.151,1.054-.18.758-.068,1.521-.1,2.337-.151l1.628.136a1.166,1.166,0,0,1,.972,1.428c-.146.413-.209.855-.34,1.278-.243.777-.486,1.55-.758,2.323-.126.364-.3.709-.437,1.069a.733.733,0,0,0,0,.287.85.85,0,0,0,.277-.029.972.972,0,0,0,.311-.228,20.02,20.02,0,0,0,1.365-1.652,11.266,11.266,0,0,0,.972-1.841A6.055,6.055,0,0,0,81.075,69.633Z" transform="translate(-32.493 -44.304)"/>
    </g>
    <path id="Path_12608" data-name="Path 12608" d="M-1187.221,3184.783a26.5,26.5,0,0,1,3.964-.712c.7-.082,2.12-.141,3.158-.141a21.29,21.29,0,0,1,6.056.924v7.555l-1.552-1.3-1.36,1.3-1.667-1.3-1.475,1.3-1.686-1.3-1.782,1.3-1.859-1.3-1.795,1.3Z" transform="translate(959.632 304.07)" fill="#13aae3"/>
  </g>
</svg>
