<svg xmlns="http://www.w3.org/2000/svg" width="16" height="15" viewBox="0 0 16 15">
  <g id="Group_349" data-name="Group 349" transform="translate(-299 -28)">
    <path id="Path_2840" data-name="Path 2840" d="M5.187,9.286h8.469a.467.467,0,0,0,.45-.337l1.875-6.5a.46.46,0,0,0-.076-.407.471.471,0,0,0-.375-.185H4.105L3.77.364A.468.468,0,0,0,3.312,0H.469a.464.464,0,1,0,0,.929H2.936L4.629,8.473a1.39,1.39,0,0,0,.558,2.67h8.469a.464.464,0,1,0,0-.929H5.187a.464.464,0,1,1,0-.929Zm0,0" transform="translate(299 28)" fill="#666"/>
    <path id="Path_2841" data-name="Path 2841" d="M151,361.5a1.515,1.515,0,1,0,1.515-1.5A1.509,1.509,0,0,0,151,361.5Zm0,0" transform="translate(152.072 -320.004)" fill="#666"/>
    <path id="Path_2842" data-name="Path 2842" d="M362,361.5a1.514,1.514,0,1,0,1.514-1.5A1.509,1.509,0,0,0,362,361.5Zm0,0" transform="translate(-51.831 -320.004)" fill="#666"/>
  </g>
</svg>
