<svg id="facebook" xmlns="http://www.w3.org/2000/svg" xmlns:xlink="http://www.w3.org/1999/xlink" width="50" height="50" viewBox="0 0 50 50">
  <defs>
    <linearGradient id="linear-gradient" x1="0.14" y1="0.88" x2="0.859" y2="0.157" gradientUnits="objectBoundingBox">
      <stop offset="0" stop-color="#fd5"/>
      <stop offset="0.5" stop-color="#ff543e"/>
      <stop offset="1" stop-color="#c837ab"/>
    </linearGradient>
  </defs>
  <circle id="Ellipse_412" data-name="Ellipse 412" cx="25" cy="25" r="25" transform="translate(0 0)" fill="url(#linear-gradient)"/>
  <path id="Path_10254" data-name="Path 10254" d="M18.311,3.145c-6.217,0-12.12-.553-14.375,5.234-.931,2.39-.8,5.494-.8,9.939,0,3.9-.125,7.566.8,9.937,2.25,5.79,8.2,5.236,14.372,5.236,5.953,0,12.091.62,14.373-5.236.933-2.414.8-5.472.8-9.937,0-5.927.327-9.754-2.548-12.627C28.019,2.78,24.083,3.145,18.3,3.145ZM16.952,5.879C29.919,5.859,31.57,4.417,30.659,24.444c-.324,7.083-5.717,6.306-12.346,6.306C6.225,30.75,5.878,30.4,5.878,18.311c0-12.233.959-12.425,11.074-12.435ZM26.41,8.4a1.82,1.82,0,1,0,1.82,1.82A1.82,1.82,0,0,0,26.41,8.4Zm-8.1,2.128A7.791,7.791,0,1,0,26.1,18.318a7.791,7.791,0,0,0-7.789-7.792Zm0,2.734c6.686,0,6.694,10.115,0,10.115S11.617,13.26,18.311,13.26Z" transform="translate(6.757 6.72)" fill="#fff"/>
</svg>
