<svg xmlns="http://www.w3.org/2000/svg" xmlns:xlink="http://www.w3.org/1999/xlink" width="50" height="50" viewBox="0 0 50 50">
  <defs>
    <filter id="Path_12645" x="22.508" y="8.637" width="26.763" height="38.779" filterUnits="userSpaceOnUse">
      <feOffset dy="3" input="SourceAlpha"/>
      <feGaussianBlur stdDeviation="3" result="blur"/>
      <feFlood flood-opacity="0.161"/>
      <feComposite operator="in" in2="blur"/>
      <feComposite in="SourceGraphic"/>
    </filter>
  </defs>
  <g id="Group_6112" data-name="Group 6112" transform="translate(-288 -173.618)">
    <g id="facebook" transform="translate(288 173.618)">
      <circle id="Ellipse_412" data-name="Ellipse 412" cx="25" cy="25" r="25" transform="translate(0 0)" fill="#fff"/>
    </g>
    <g id="Group_6111" data-name="Group 6111" transform="translate(353.729 -3208.358)">
      <path id="Path_12624" data-name="Path 12624" d="M320.529,571.4h0Z" transform="translate(-361.24 2845.993)" fill="#f37320"/>
      <path id="Path_12625" data-name="Path 12625" d="M331.842,569.9a.231.231,0,0,0-.042.013.119.119,0,0,0,.042-.013" transform="translate(-372.069 2847.43)" fill="#f37320"/>
      <path id="Path_12626" data-name="Path 12626" d="M312.517,570.4a.026.026,0,0,1-.017,0,.026.026,0,0,0,.017,0" transform="translate(-353.573 2846.951)" fill="#f37320"/>
      <path id="Path_12627" data-name="Path 12627" d="M327.492,570.7c-.029,0-.067.013-.092.017.025,0,.058-.013.092-.017" transform="translate(-367.852 2846.664)" fill="#f37320"/>
      <path id="Path_12628" data-name="Path 12628" d="M323.875,571.2a.481.481,0,0,1-.075,0,.156.156,0,0,0,.075,0" transform="translate(-364.402 2846.184)" fill="#f37320"/>
      <path id="Path_12629" data-name="Path 12629" d="M325.667,571c-.025,0-.05,0-.067,0a.4.4,0,0,0,.067,0" transform="translate(-366.127 2846.376)" fill="#f15e22"/>
      <path id="Path_12630" data-name="Path 12630" d="M309.917,569.925a1.122,1.122,0,0,1-.117-.025c.038,0,.075.017.117.025" transform="translate(-350.986 2847.43)" fill="#f15e22"/>
      <path id="Path_12631" data-name="Path 12631" d="M329.6,570.1a.7.7,0,0,1-.1.025.7.7,0,0,0,.1-.025" transform="translate(-369.865 2847.239)" fill="#f15e22"/>
      <path id="Path_12632" data-name="Path 12632" d="M313.309,570.538A1.557,1.557,0,0,1,313,570.5a1.278,1.278,0,0,0,.309.037" transform="translate(-354.053 2846.855)" fill="#f15e22"/>
      <path id="Path_12633" data-name="Path 12633" d="M321.3,571.3c-.029,0-.067,0-.1,0a.8.8,0,0,0,.1,0" transform="translate(-361.911 2846.088)" fill="#f15e22"/>
      <path id="Path_12634" data-name="Path 12634" d="M478.888,155.129h0a.458.458,0,0,0-.183-.029.909.909,0,0,1,.242.054.313.313,0,0,1-.054-.025" transform="translate(-512.845 3244.939)" fill="#f15e22"/>
      <path id="Path_12635" data-name="Path 12635" d="M471.667,155.112h0a.218.218,0,0,1-.063.025.9.9,0,0,1,.3-.05.471.471,0,0,0-.233.025" transform="translate(-506.041 3244.957)" fill="#ec008b"/>
      <path id="Path_12636" data-name="Path 12636" d="M525.988,171.229h0a.491.491,0,0,0-.188-.029.67.67,0,0,1,.242.054.284.284,0,0,0-.054-.025" transform="translate(-557.982 3229.51)" fill="#f15e22"/>
      <path id="Path_12637" data-name="Path 12637" d="M518.667,171.153h0a.192.192,0,0,1-.067.029.8.8,0,0,1,.3-.054.527.527,0,0,0-.229.025" transform="translate(-551.082 3229.582)" fill="#ec008b"/>
      <path id="Path_12638" data-name="Path 12638" d="M527.988,172.325h0a.486.486,0,0,0-.188-.025.678.678,0,0,1,.242.05c-.021-.008-.033-.017-.054-.025" transform="translate(-559.899 3228.456)" fill="#f15e22"/>
      <path id="Path_12639" data-name="Path 12639" d="M520.767,172.2h0c-.021.012-.042.017-.067.029a.784.784,0,0,1,.3-.054.669.669,0,0,0-.229.025" transform="translate(-553.095 3228.576)" fill="#ec008b"/>
      <path id="Path_12640" data-name="Path 12640" d="M-42.4,71.917h0c.017,0,.042-.013.063-.017-1.655.25-5.323,6.153-7.295,11.567-2.1,5.765-1.592,8.545.054,9.15h0c1.647.6,3.818-1.209,5.919-6.978a43.407,43.407,0,0,0,1.434-4.873c-1.021-4.394-1.246-8.449-.183-8.85" transform="translate(-4.989 3324.671)" fill="#f13ab1"/>
      <path id="Path_12641" data-name="Path 12641" d="M163.432,92.249h0c-1.655-.609-2.151-3.393-.054-9.15.208-.571.429-1.15.675-1.722-2.155-5.148-5.477-10.138-6.853-9.85a.68.68,0,0,1,.3.025h0v0c1.067.4.838,4.448-.183,8.845a40.784,40.784,0,0,0,1.434,4.869c1.655,4.544,3.356,6.624,4.806,7.011a.942.942,0,0,1-.125-.033" transform="translate(-204.747 3325.04)" fill="#fd913c"/>
      <path id="Path_12642" data-name="Path 12642" d="M140.018,71.8h0a.641.641,0,0,0-.283-.025c-.029,0-.042.013-.067.017h0c-1.063.4-.838,4.456.179,8.85,1.013-4.394,1.242-8.441.179-8.841" transform="translate(-187.156 3324.801)" fill="#fd913c"/>
      <path id="Path_12643" data-name="Path 12643" d="M328.128,73c-1.542.559-4.46,5.119-6.428,9.8.242.571.467,1.15.675,1.722,2.1,5.761,1.6,8.545-.054,9.146v0c-.05.013-.1.029-.146.042,1.455-.375,3.172-2.451,4.823-7.02a39.72,39.72,0,0,0,1.4-4.74c-1.021-4.356-1.28-8.42-.271-8.95" transform="translate(-362.503 3323.617)" fill="#f05524"/>
      <path id="Path_12644" data-name="Path 12644" d="M274.674,318.871h0c1.647-.6,2.147-3.393.054-9.15-.217-.571-.438-1.15-.684-1.722-.242.571-.467,1.151-.675,1.722-2.1,5.761-1.592,8.549.054,9.15.042.017.088.025.129.038a.6.6,0,0,0,.117.029h.017a1.7,1.7,0,0,0,.313.042h.133a.4.4,0,0,0,.075-.013c.029,0,.05,0,.079,0s.054-.013.088-.017a.387.387,0,0,0,.1-.017c.017,0,.029,0,.042,0,.054-.021.1-.033.154-.054" transform="translate(-314.751 3098.413)" fill="#f05524"/>
      <path id="Path_12646" data-name="Path 12646" d="M461.544,71.654a.966.966,0,0,0-.242-.054.943.943,0,0,0-.3.063c-1,.529-.75,4.585.275,8.954,1.034-4.381,1.284-8.449.263-8.962" transform="translate(-495.394 3324.959)" fill="#f13ab1"/>
      <g transform="matrix(1, 0, 0, 1, -65.73, 3381.98)" filter="url(#Path_12645)">
        <path id="Path_12645-2" data-name="Path 12645" d="M482.558,72.9c1.021.509.767,4.577-.258,8.962a40.694,40.694,0,0,0,1.4,4.731c2.1,5.765,4.273,7.574,5.928,6.978h0c1.642-.609,2.147-3.385.05-9.15-1.9-5.231-5.39-10.913-7.12-11.522" transform="translate(-450.79 -58.26)" fill="#f13ab1"/>
      </g>
    </g>
  </g>
</svg>
