<svg xmlns="http://www.w3.org/2000/svg" xmlns:xlink="http://www.w3.org/1999/xlink" width="50" height="50" viewBox="0 0 50 50">
  <defs>
    <linearGradient id="linear-gradient" x1="-0.774" y1="3.67" x2="-0.769" y2="3.67" gradientUnits="objectBoundingBox">
      <stop offset="0" stop-color="#ee2224"/>
      <stop offset="1" stop-color="#f16521"/>
    </linearGradient>
  </defs>
  <g id="Group_6116" data-name="Group 6116" transform="translate(-200 -260)">
    <g id="facebook" transform="translate(200 260)">
      <circle id="Ellipse_412" data-name="Ellipse 412" cx="25" cy="25" r="25" transform="translate(0 0)" fill="#fff"/>
    </g>
    <g id="Group_6115" data-name="Group 6115" transform="translate(666.453 287.156)">
      <path id="Path_12650" data-name="Path 12650" d="M-430.986-6.229h-.056a1.066,1.066,0,0,0-.831.318,2.135,2.135,0,0,0-.227,1.3c0,.074,0,.148,0,.224v.055h-.405v.878h.405V.181h1.036V-3.453h.319a.839.839,0,0,0,.808-.879h-1.127v-.589a.428.428,0,0,1,.456-.457.71.71,0,0,1,.609.354.64.64,0,0,0,.137-.67,1.2,1.2,0,0,0-1.125-.536Zm3.408,1.781a1.034,1.034,0,0,0-.853.664l-.1.22v-.777h-.878V.181h1.036V-1.634c0-.235,0-.528.018-.814a1.053,1.053,0,0,1,1-1.02.568.568,0,0,1,.526.284.692.692,0,0,0,.14-.711.806.806,0,0,0-.812-.554l-.076,0Zm-6.386,0a1.034,1.034,0,0,0-.853.664l-.1.22v-.777h-.878V.181h1.036V-1.634c0-.235,0-.528.018-.814a1.053,1.053,0,0,1,1-1.02.568.568,0,0,1,.526.284.69.69,0,0,0,.14-.711.807.807,0,0,0-.812-.554l-.076,0Zm-6.455,3.387A2.165,2.165,0,0,0-438.325.278a2.124,2.124,0,0,0,1.9-.938l-.833-.409a1.548,1.548,0,0,1-1.079.446,1.461,1.461,0,0,1-.255-.023,1.412,1.412,0,0,1-1.041-1.5A1.446,1.446,0,0,1-438.293-3.6l.07,0a.936.936,0,0,1,.994.727c.012.286-.238.479-.668.517-.132.013-.289.027-.449.027a1.414,1.414,0,0,1-.861-.232.725.725,0,0,0,.059.649,1.189,1.189,0,0,0,1.019.412,2.8,2.8,0,0,0,.68-.091,1.309,1.309,0,0,0,1.1-1.438,1.736,1.736,0,0,0-1.882-1.41,2.326,2.326,0,0,0-1.748.687,2.571,2.571,0,0,0-.443,2.7h0ZM-455-3.761a2.571,2.571,0,0,0-.443,2.7A2.164,2.164,0,0,0-453.345.278a2.122,2.122,0,0,0,1.9-.938l-.833-.409a1.547,1.547,0,0,1-1.078.446,1.431,1.431,0,0,1-.255-.023,1.412,1.412,0,0,1-1.041-1.5A1.446,1.446,0,0,1-453.312-3.6l.07,0a.936.936,0,0,1,.993.727c.012.286-.238.479-.668.517-.132.013-.289.027-.449.027a1.414,1.414,0,0,1-.861-.232.725.725,0,0,0,.059.649,1.19,1.19,0,0,0,1.02.412,2.815,2.815,0,0,0,.68-.091,1.31,1.31,0,0,0,1.1-1.438,1.737,1.737,0,0,0-1.883-1.41A2.327,2.327,0,0,0-455-3.761Zm10.4-.07-.093.093v-.578h-.03a.907.907,0,0,0-1,.874V1.917h1.028V-1.67c0-.547.121-1.818,1.244-1.818a1.291,1.291,0,0,1,1.28,1.4,1.313,1.313,0,0,1-1.28,1.413A1.323,1.323,0,0,1-444.385-1a.985.985,0,0,0,.089.756,1.1,1.1,0,0,0,1,.517h.056a2.018,2.018,0,0,0,1.455-.659,2.441,2.441,0,0,0,.644-1.682A2.172,2.172,0,0,0-443.2-4.432a1.969,1.969,0,0,0-1.4.6h0Zm-5.1,0-.093.093v-.578h-.029a.907.907,0,0,0-1,.874V1.917h1.027V-1.67c0-.547.121-1.818,1.244-1.818a1.291,1.291,0,0,1,1.28,1.4,1.312,1.312,0,0,1-1.28,1.413A1.323,1.323,0,0,1-449.483-1a.984.984,0,0,0,.089.755,1.1,1.1,0,0,0,1,.517h.056a2.019,2.019,0,0,0,1.455-.659,2.44,2.44,0,0,0,.644-1.682A2.172,2.172,0,0,0-448.3-4.432,1.969,1.969,0,0,0-449.7-3.831Zm-9.929,0-.093.093v-.578h-.03a.907.907,0,0,0-1,.874V1.917h1.028V-1.67c0-.547.121-1.818,1.244-1.818a1.29,1.29,0,0,1,1.28,1.4,1.312,1.312,0,0,1-1.28,1.413A1.324,1.324,0,0,1-459.413-1a.988.988,0,0,0,.089.756,1.1,1.1,0,0,0,1,.517h.056a2.02,2.02,0,0,0,1.455-.659,2.441,2.441,0,0,0,.643-1.682,2.172,2.172,0,0,0-2.062-2.362,1.969,1.969,0,0,0-1.4.6Zm36.439-.5c0,.455,0,3.575,0,3.944a1.232,1.232,0,0,1-1.36,1.347h-.058a1.841,1.841,0,0,1-1.475-.691,1.243,1.243,0,0,0,.168,1.057,1.811,1.811,0,0,0,1.486.583A2.046,2.046,0,0,0-422.16-.325V-4.331Zm-2.925,0v2.964a1.594,1.594,0,0,0,.381,1.155,1.5,1.5,0,0,0,1.1.458c.036,0,.071,0,.107,0,.565-.036.9-.216,1.016-.549a.822.822,0,0,0-.163-.867.434.434,0,0,1-.1.279.72.72,0,0,1-.571.2.713.713,0,0,1-.69-.611,19.523,19.523,0,0,1-.075-2.652l0-.379h-1.01Z" fill="url(#linear-gradient)"/>
    </g>
  </g>
</svg>
