<svg xmlns="http://www.w3.org/2000/svg" width="13" height="15" viewBox="0 0 13 15">
  <g id="Group_350" data-name="Group 350" transform="translate(-332 -28)">
    <g id="Group_236" data-name="Group 236" transform="translate(334.6 28)">
      <g id="Group_235" data-name="Group 235">
        <path id="Path_2843" data-name="Path 2843" d="M124.9,0A3.932,3.932,0,0,0,121,3.955a3.9,3.9,0,1,0,7.8,0A3.932,3.932,0,0,0,124.9,0Z" transform="translate(-121)" fill="#666"/>
      </g>
    </g>
    <g id="Group_238" data-name="Group 238" transform="translate(332 36.789)">
      <g id="Group_237" data-name="Group 237">
        <path id="Path_2844" data-name="Path 2844" d="M42.352,301.7a5.522,5.522,0,0,0-3.986-1.7H36.633a5.522,5.522,0,0,0-3.986,1.7A5.806,5.806,0,0,0,31,305.771a.436.436,0,0,0,.433.439H43.567a.436.436,0,0,0,.433-.439A5.806,5.806,0,0,0,42.352,301.7Z" transform="translate(-31 -300)" fill="#666"/>
      </g>
    </g>
  </g>
</svg>
