<svg xmlns="http://www.w3.org/2000/svg" width="50.348" height="42.184" viewBox="0 0 50.348 42.184">
  <path id="Path_2" data-name="Path 2" d="M16.289-14.09q-5.9,0-8.856-4.342T4.482-30.558A26.726,26.726,0,0,1,8.715-45.5q4.233-6.485,13.144-10.772l4.01,8.347a20.315,20.315,0,0,0-8.02,5.809A13.458,13.458,0,0,0,15.175-33.6a3.862,3.862,0,0,1,1.114-.113,9.85,9.85,0,0,1,6.795,2.481,8.6,8.6,0,0,1,2.785,6.767A10.532,10.532,0,0,1,23.2-16.91,9.09,9.09,0,0,1,16.289-14.09Zm28.961,0q-5.9,0-8.856-4.342T33.443-30.558A26.726,26.726,0,0,1,37.676-45.5q4.233-6.485,13.144-10.772l4.01,8.347a20.315,20.315,0,0,0-8.02,5.809A13.458,13.458,0,0,0,44.137-33.6a3.862,3.862,0,0,1,1.114-.113,9.85,9.85,0,0,1,6.795,2.481,8.6,8.6,0,0,1,2.785,6.767,10.532,10.532,0,0,1-2.673,7.557A9.09,9.09,0,0,1,45.251-14.09Z" transform="translate(-4.482 56.274)" fill="#f77821" opacity="0.2"/>
</svg>
