<svg xmlns="http://www.w3.org/2000/svg" width="18" height="17" viewBox="0 0 18 17">
  <g id="Polygon_1" data-name="Polygon 1" fill="none">
    <path d="M9,0l2.7,5.707,6.3.786-4.631,4.314L14.562,17,9,13.959,3.438,17l1.194-6.193L0,6.493l6.3-.786Z" stroke="none"/>
    <path d="M 9.000000953674316 2.338313102722168 L 6.968999862670898 6.631230354309082 L 2.247940063476562 7.220568656921387 L 5.718020439147949 10.45256042480469 L 4.821581840515137 15.10369396209717 L 9 12.81925010681152 L 13.17841148376465 15.10369396209717 L 12.28198051452637 10.45256042480469 L 15.7520637512207 7.220565795898438 L 11.0310001373291 6.631219863891602 L 9.000000953674316 2.338313102722168 M 9 0 L 11.69999980926514 5.70697021484375 L 18 6.493419647216797 L 13.36869049072266 10.80697059631348 L 14.56229972839355 17 L 9 13.95895004272461 L 3.437689781188965 17 L 4.63131046295166 10.80697059631348 L 0 6.493419647216797 L 6.300000190734863 5.706979751586914 L 9 0 Z" stroke="none" fill="#707070"/>
  </g>
</svg>
