<?xml version="1.0" encoding="iso-8859-1"?>
<!-- Generator: Adobe Illustrator 18.0.0, SVG Export Plug-In . SVG Version: 6.00 Build 0)  -->
<!DOCTYPE svg PUBLIC "-//W3C//DTD SVG 1.1//EN" "http://www.w3.org/Graphics/SVG/1.1/DTD/svg11.dtd">
<svg xmlns="http://www.w3.org/2000/svg" xmlns:xlink="http://www.w3.org/1999/xlink" version="1.1" id="Capa_1" x="0px" y="0px" viewBox="0 0 60 60" style="enable-background:new 0 0 60 60;" xml:space="preserve" width="512px" height="512px">
<g>
	<path d="M42,34c-7.168,0-13,5.832-13,13s5.832,13,13,13s13-5.832,13-13S49.168,34,42,34z M42,58c-6.065,0-11-4.935-11-11   s4.935-11,11-11s11,4.935,11,11S48.065,58,42,58z" fill="#7f7f7f"/>
	<path d="M48,46h-5v-5c0-0.553-0.448-1-1-1s-1,0.447-1,1v5h-5c-0.552,0-1,0.447-1,1s0.448,1,1,1h5v5c0,0.553,0.448,1,1,1   s1-0.447,1-1v-5h5c0.552,0,1-0.447,1-1S48.552,46,48,46z" fill="#7f7f7f"/>
	<circle cx="22" cy="53" r="2" fill="#7f7f7f"/>
	<path d="M34.595,0H9.405C6.976,0,5,1.977,5,4.405v51.189C5,58.023,6.976,60,9.405,60h23.303C28.655,57.094,26,52.356,26,47   c0-0.337,0.03-0.667,0.051-1H7V8h30v23h2V4.405C39,1.977,37.024,0,34.595,0z M22,49c2.206,0,4,1.794,4,4s-1.794,4-4,4s-4-1.794-4-4   S19.794,49,22,49z M22,5h-4c-0.552,0-1-0.447-1-1s0.448-1,1-1h4c0.552,0,1,0.447,1,1S22.552,5,22,5z M26,5h-1c-0.552,0-1-0.447-1-1   s0.448-1,1-1h1c0.552,0,1,0.447,1,1S26.552,5,26,5z" fill="#7f7f7f"/>
</g>
<g>
</g>
<g>
</g>
<g>
</g>
<g>
</g>
<g>
</g>
<g>
</g>
<g>
</g>
<g>
</g>
<g>
</g>
<g>
</g>
<g>
</g>
<g>
</g>
<g>
</g>
<g>
</g>
<g>
</g>
</svg>
